<svg width="22" height="22" viewBox="0 0 22 22" fill="none" xmlns="http://www.w3.org/2000/svg">
<path d="M9.87975 0.390381C9.61505 0.390381 9.35035 0.457536 9.09582 0.558269L1.60267 3.97199C1.10458 4.19623 0.707884 4.62874 0.499787 5.17444C0.29169 5.72014 0.289232 6.33436 0.492953 6.88205L5.54269 20.2571C5.69184 20.6628 5.94588 21.0115 6.27339 21.2602C6.6009 21.5088 6.98751 21.6465 7.38543 21.6562C7.65013 21.6562 7.92502 21.6226 8.18972 21.4883L15.6931 18.0746C16.0552 17.9056 16.3657 17.626 16.5876 17.2689C16.8096 16.9118 16.9337 16.4922 16.9453 16.0599C16.9555 15.7801 16.9046 15.4555 16.813 15.1645L11.7225 1.78945C11.5786 1.37982 11.3259 1.0273 10.9972 0.777773C10.6685 0.528242 10.2792 0.393255 9.87975 0.390381ZM13.4227 0.390381L16.9351 9.73614V2.62889C16.9351 2.0352 16.7206 1.46583 16.3387 1.04602C15.9569 0.626223 15.439 0.390381 14.8989 0.390381H13.4227ZM18.9815 2.11403V12.2209L21.4554 5.66206C21.5569 5.39094 21.6086 5.10048 21.6077 4.80732C21.6068 4.51417 21.5533 4.22409 21.4502 3.95374C21.3471 3.68338 21.1964 3.43806 21.0069 3.23183C20.8174 3.02561 20.5927 2.86255 20.3457 2.75201L18.9815 2.11403ZM7.38543 19.787L14.9498 16.0487L7.42615 19.4736L2.35606 6.03142" fill="white"/>
</svg>
